<?xml version="1.0" encoding="utf-8"?>
<!-- Generator: Adobe Illustrator 16.0.0, SVG Export Plug-In . SVG Version: 6.00 Build 0)  -->
<!DOCTYPE svg PUBLIC "-//W3C//DTD SVG 1.1//EN" "http://www.w3.org/Graphics/SVG/1.1/DTD/svg11.dtd">
<svg version="1.1" id="Layer_1" xmlns="http://www.w3.org/2000/svg" xmlns:xlink="http://www.w3.org/1999/xlink" x="0px" y="0px"
	 width="270.171px" height="70.535px" viewBox="0 0 270.171 70.535" enable-background="new 0 0 270.171 70.535"
	 xml:space="preserve">
<g>
	<path fill="#FFFFFF" d="M270.171,28.215c0,6.421,0,12.841,0,19.262c-90.058,0-180.114,0-270.171,0c0-6.421,0-12.841,0-19.262
		c0.5-0.01,1-0.028,1.499-0.028c12.131-0.002,24.26-0.015,36.391,0.022c0.962,0.003,1.374-0.301,1.656-1.196
		c0.945-2.999,2.002-5.962,2.948-8.962c0.239-0.754,0.55-1.05,1.37-1.05c31.43,0.02,62.862,0.019,94.291,0.001
		c0.775,0,1.183,0.235,1.511,0.955c1.359,2.983,2.83,5.917,4.169,8.909c0.456,1.019,1.025,1.35,2.158,1.349
		c40.851-0.034,81.705-0.028,122.555-0.027C269.088,28.186,269.631,28.205,270.171,28.215z M156.303,31.305
		c-0.762,0-1.175,0-1.586-0.001c-30.39-0.011-60.78-0.022-91.17-0.031c-4.46-0.001-8.921,0.022-13.381,0.03
		c-0.8,0.001-1.569,0.045-1.559,1.127c0.037,3.498,0.05,6.998,0.152,10.491c0.037,1.256,0.692,1.763,1.94,1.761
		c0.749,0,1.499-0.062,2.249-0.062c33.141-0.005,66.283-0.005,99.424,0c0.834,0,1.669,0.093,2.499,0.053
		c0.985-0.047,1.633-0.471,1.63-1.619c-0.002-1.665,0.144-3.334,0.111-4.997C156.57,35.863,156.416,33.671,156.303,31.305z
		 M39.679,37.42c0.761,0,1.49,0.131,2.147-0.028c1.033-0.252,0.97-1.24,1.027-2.051c0.057-0.797-0.511-0.899-1.16-0.951
		c-0.658-0.051-1.309-0.208-1.959-0.34c-2.118-0.427-3.583,0.203-4.278,1.855C34.58,37.991,35,39.44,36.855,40.75
		c1.628,1.147,3.443,0.838,4.623-0.741c0.51-0.681,0.195-1.059-0.44-1.124c-0.347-0.034-0.835,0.263-1.092,0.556
		c-0.917,1.047-1.167,1.087-2.191,0.12c-0.242-0.228-0.493-0.445-0.741-0.67c-0.879-0.79-0.57-1.661-0.116-2.489
		c0.481-0.88,1.262-1.141,2.236-0.917C40.413,35.778,39.476,36.702,39.679,37.42z M9.455,37.282c0.356-0.765,0.7-1.19,0.713-1.626
		c0.013-0.419-0.289-1.203-0.5-1.218c-1.497-0.115-1.903,1.393-2.836,2.138c-0.327,0.261-0.618,1.089-0.448,1.357
		c0.609,0.974,1.36,1.884,2.192,2.674c0.291,0.276,0.971,0.143,1.473,0.195c-0.009-0.516-0.005-1.03-0.032-1.545
		c-0.009-0.186-0.09-0.369-0.196-0.768c0.793,0,1.448,0.061,2.085-0.015c0.718-0.086,1.813,0.189,1.726-0.993
		c-0.018-0.24-1.275-0.493-1.974-0.546C11.048,36.891,10.416,37.118,9.455,37.282z M24.707,38.638
		c-0.119,0.409-0.248,0.676-0.264,0.95c-0.025,0.405,0.03,0.814,0.051,1.222c0.457-0.055,1.031,0.047,1.345-0.195
		c0.745-0.572,1.436-1.252,2.019-1.993c0.537-0.682,0.524-1.517-0.087-2.185c-0.618-0.671-1.281-1.322-2.02-1.847
		c-0.271-0.193-0.948-0.151-1.196,0.065c-0.215,0.188-0.176,0.794-0.079,1.171c0.091,0.356,0.405,0.655,0.642,1.008
		c-1.435,0.826-3.253-0.544-4.664,1.413C22.003,38.389,23.269,38.505,24.707,38.638z"/>
	<path fill="#FFFFFF" d="M28.895,25.195c-1.625,0.007-2.855-1.188-2.877-2.795c-0.021-1.552,1.433-3.206,2.832-3.219
		c1.364-0.013,2.931,1.693,2.919,3.18C31.755,23.936,30.487,25.188,28.895,25.195z"/>
	<path fill="#FFFFFF" d="M6.979,22.319c-0.237-1.443,1.816-3.24,2.906-3.154c1.284,0.102,2.836,1.754,2.852,3.149
		c0.018,1.611-1.314,2.9-2.971,2.876C8.13,25.167,6.972,23.973,6.979,22.319z"/>
	<path fill="#FFFFFF" d="M19.352,25.192c-1.626,0.026-2.867-1.156-2.905-2.766c-0.037-1.59,1.36-3.207,2.804-3.243
		c1.354-0.033,2.944,1.657,2.954,3.143C22.217,23.895,20.95,25.167,19.352,25.192z"/>
	<path fill="#FFFFFF" d="M112.037,40.564c-0.239,0.259-0.445,0.477-0.867,0.931c0-2.875,0-5.383,0-7.938
		c1.153-0.175,0.746,0.694,0.793,1.184c0.056,0.572,0.013,1.151,0.013,1.593c0.948-0.045,1.813-0.175,2.654-0.079
		c0.358,0.042,0.752,0.503,0.975,0.869c0.623,1.018,0.424,2.569-0.35,3.365C114.419,41.343,113.499,41.375,112.037,40.564z
		 M111.978,38.625c-0.005,1.246,0.48,1.892,1.449,1.922c1.005,0.033,1.657-0.706,1.675-1.897c0.019-1.199-0.607-1.997-1.57-2.003
		C112.543,36.641,111.983,37.355,111.978,38.625z"/>
	<path fill="#FFFFFF" d="M54.512,34.12c0.54,0.529,1.309,0.963,1.572,1.604c0.61,1.478,0.726,3.174,2.085,4.302
		c0.108,0.089,0.005,0.432,0.001,0.657c-0.256-0.015-0.646,0.077-0.75-0.055c-1.064-1.36-2.529-1.757-4.155-1.965
		c-0.986-0.126-1.448-1.177-1.259-2.378C52.193,35.103,53.053,34.374,54.512,34.12z M56.009,36.891
		c0.001-0.199,0.003-0.403,0.004-0.603c-0.509-0.35-0.981-0.898-1.536-1.002c-0.811-0.151-1.311,0.42-1.319,1.269
		c-0.008,0.852,0.477,1.428,1.296,1.289C55.011,37.752,55.495,37.223,56.009,36.891z"/>
	<path fill="#FFFFFF" d="M102.899,40.13c0.719-1.396,0.515-3.046,1.549-4.174c0.152,0.053,0.303,0.104,0.456,0.155
		c-0.521,1.622-1.042,3.245-1.563,4.867c-0.326-0.12-0.855-0.161-0.94-0.379c-0.398-0.989-0.67-2.029-1.248-3.098
		c-0.316,0.937-0.599,1.885-0.963,2.801c-0.13,0.33-0.455,0.586-0.692,0.878c-0.197-0.275-0.482-0.523-0.58-0.831
		c-0.44-1.385-0.826-2.785-1.234-4.189c0.798-0.065,0.796-0.065,1.195,1.453c0.197,0.749,0.401,1.499,0.841,2.271
		c0.322-1.03,0.619-2.073,0.984-3.087c0.106-0.297,0.412-0.521,0.626-0.777c0.177,0.246,0.425,0.468,0.519,0.743
		C102.215,37.848,102.535,38.952,102.899,40.13z"/>
	<path fill="#FFFFFF" d="M90.726,36.101c0.017,0.204,0.048,0.409,0.049,0.613c0.004,1.455,0.002,2.909,0.002,4.68
		c-0.44-0.354-0.69-0.556-0.972-0.781c-2.187,1.107-3.208,0.468-3.219-2.134c-0.003-0.785-0.001-1.571-0.001-2.359
		c0.12-0.063,0.24-0.126,0.36-0.189c0.172,0.265,0.467,0.52,0.492,0.798c0.077,0.867-0.064,1.77,0.112,2.608
		c0.092,0.439,0.741,1.132,1.017,1.077c0.483-0.092,1.128-0.607,1.244-1.063c0.21-0.822,0.043-1.734,0.117-2.604
		c0.024-0.285,0.309-0.55,0.474-0.822C90.508,35.983,90.617,36.044,90.726,36.101z"/>
	<path fill="#FFFFFF" d="M106.264,38.87c0.421,2.185,2.021,1.518,3.25,1.676c-0.868,0.807-2.195,0.841-3.146,0.135
		c-0.912-0.678-1.145-2.231-0.512-3.416c0.544-1.024,1.608-1.488,2.619-1.146c1.018,0.344,1.451,1.24,1.255,2.752
		C108.64,38.87,107.53,38.87,106.264,38.87z M106.341,38.167c0.994,0,1.84,0,2.689,0c0.08-0.122,0.159-0.244,0.238-0.366
		c-0.47-0.387-0.894-1.008-1.42-1.111C106.896,36.502,106.482,37.217,106.341,38.167z"/>
	<path fill="#FFFFFF" d="M131.096,38.894c-1.232,0-2.341,0-3.553,0c0.356,2.138,1.994,1.521,3.316,1.653
		c-1.119,0.831-2.484,0.803-3.36,0.028c-0.809-0.712-0.99-2.253-0.356-3.351c0.561-0.969,1.41-1.449,2.517-1.117
		C130.925,36.484,131.156,37.508,131.096,38.894z M127.595,38.171c0.994,0,1.846,0,2.695,0c0.082-0.117,0.162-0.238,0.242-0.357
		c-0.466-0.392-0.883-1.017-1.409-1.124C128.171,36.493,127.755,37.208,127.595,38.171z"/>
	<path fill="#FFFFFF" d="M85.452,38.579c-0.013,1.505-1.124,2.627-2.586,2.608c-1.42-0.017-2.479-1.122-2.464-2.573
		c0.015-1.509,1.116-2.618,2.589-2.606C84.414,36.018,85.466,37.115,85.452,38.579z M84.581,38.654
		c0.021-1.172-0.618-1.984-1.585-2.011c-1.002-0.026-1.687,0.721-1.722,1.881c-0.034,1.134,0.634,1.987,1.586,2.02
		C83.837,40.581,84.56,39.784,84.581,38.654z"/>
	<path fill="#FFFFFF" d="M75.357,36.124c1.787,0.582,1.415,2.468,2.365,3.645c0.839-1.12,0.595-2.896,1.768-3.852
		c0.169,0.083,0.338,0.167,0.507,0.25c-0.935,2.183-1.86,4.369-2.821,6.539c-0.107,0.242-0.391,0.448-0.643,0.572
		c-0.219,0.107-0.506,0.079-0.764,0.111c0.088-0.224,0.116-0.515,0.275-0.659c0.983-0.892,1.407-1.83,0.717-3.153
		C76.19,38.479,75.818,37.278,75.357,36.124z"/>
	<path fill="#FFFFFF" d="M124.922,36.795c0.534,1.313-0.984,3.121,1.291,4.155c-0.374,0.057-0.834,0.274-1.103,0.13
		c-0.388-0.207-0.813-0.639-0.905-1.046c-0.159-0.717-0.022-1.496-0.116-2.235c-0.061-0.501-0.303-0.979-0.533-1.676
		c0.248-0.346,0.658-0.922,1.258-1.763c0.12,0.744,0.177,1.099,0.246,1.527c0.385,0.073,0.798,0.153,1.212,0.23
		c0.015,0.104,0.029,0.203,0.043,0.306C125.933,36.525,125.551,36.626,124.922,36.795z"/>
	<path fill="#FFFFFF" d="M119.667,36.465c-0.632,0.245-1.233,0.477-1.832,0.709c0.473,0.438,0.985,0.841,1.402,1.325
		c0.327,0.383,0.799,0.914,0.731,1.297c-0.082,0.462-0.592,1.04-1.044,1.199c-0.59,0.205-1.306,0.051-1.97,0.051
		c0-0.175,0-0.351,0-0.523c0.323,0,0.66,0.063,0.961-0.016c0.436-0.114,0.845-0.332,1.264-0.508
		c-0.246-0.368-0.484-0.74-0.747-1.097c-0.066-0.09-0.214-0.122-0.328-0.173c-0.884-0.387-1.389-0.981-0.89-1.957
		C117.644,35.93,118.825,35.833,119.667,36.465z"/>
	<path fill="#FFFFFF" d="M92.397,41.132c0-1.684,0-3.367,0-5.345c0.412,0.36,0.658,0.578,0.92,0.809
		c0.39-0.197,0.845-0.432,1.301-0.664c0.082,0.084,0.164,0.167,0.246,0.253c-0.141,0.201-0.247,0.537-0.429,0.584
		c-1.087,0.289-1.235,1.096-1.222,2.023c0.008,0.578,0.053,1.167-0.025,1.734c-0.038,0.271-0.327,0.51-0.502,0.76
		C92.589,41.236,92.492,41.183,92.397,41.132z"/>
	<path fill="#FFFFFF" d="M121.404,41.097c0-1.655,0-3.306,0-4.959c0.122-0.053,0.245-0.106,0.367-0.159
		c0.153,0.326,0.429,0.647,0.441,0.979C122.372,41.012,122.362,41.014,121.404,41.097z"/>
</g>
</svg>
