<?xml version="1.0" encoding="utf-8"?>
<!-- Generator: Adobe Illustrator 16.0.0, SVG Export Plug-In . SVG Version: 6.00 Build 0)  -->
<!DOCTYPE svg PUBLIC "-//W3C//DTD SVG 1.1//EN" "http://www.w3.org/Graphics/SVG/1.1/DTD/svg11.dtd">
<svg version="1.1" id="Layer_1" xmlns="http://www.w3.org/2000/svg" xmlns:xlink="http://www.w3.org/1999/xlink" x="0px" y="0px"
	 width="270.171px" height="70.534px" viewBox="171.985 359.878 270.171 70.534"
	 enable-background="new 171.985 359.878 270.171 70.534" xml:space="preserve">
<g>
	<path fill="#FFFFFF" d="M259.599,364.018c0-0.85-0.056-1.684-0.336-2.492c-1.704-1.273-3.625-1.652-5.735-1.648
		c-24.781,0.031-49.564,0.02-74.347,0.023c-0.744,0-1.495,0-2.23,0.096c-2.618,0.338-4.426,2.133-4.781,4.752
		c-0.12,0.885-0.172,1.781-0.173,2.674c-0.01,14.451-0.005,28.904-0.012,43.357c-0.001,0.946,0.066,1.883,0.302,2.801
		c1.427,1.209,3.103,1.92,4.87,2.459c4.772,1.453,9.697,1.99,14.642,2.359c3.457,0.257,6.919,0.434,10.381,0.627
		c0.201-0.056,0.415-0.095,0.655-0.095c0.352,0,0.659,0.068,0.929,0.184c0.066,0.004,0.133,0.007,0.2,0.011
		c0.03,0.042,0.04,0.086,0.06,0.129c0.689,0.417,1.027,1.187,1.037,1.964c0.087,0.317,0.114,0.65,0.08,0.979
		c0.447,0.92,0.567,2.087,0.205,3.221c-0.438,1.377-1.577,1.455-2.772,1.453c-1.784-0.006-3.575-0.059-5.352,0.072
		c-1.92,0.143-2.756,1.319-2.379,3.071c0.938,0.068,1.875,0.197,2.812,0.199c11.17,0.015,22.339,0.008,33.508,0.006
		c1.093,0,2.186,0.023,3.276-0.021c1.499-0.062,2.546-0.74,2.88-2.289c-0.431-0.949-1.326-0.973-2.155-1
		c-1.685-0.057-3.374-0.076-5.059-0.033c-0.498,0.012-0.951-0.028-1.347-0.148c-0.031,0.001-0.058,0.009-0.089,0.009
		c-1.536,0-2.277-1.223-2.236-2.411c-0.112-0.169-0.106-0.396-0.079-0.636c-0.136-1.517-0.172-3.031,0.062-4.541
		c0.501-0.314,1.063-0.166,1.599-0.189c6.793-0.287,13.592-0.52,20.304-1.748c2.978-0.545,5.937-1.192,8.589-2.737
		c1.557-0.908,2.715-2.07,2.711-4.111C259.584,394.914,259.595,379.467,259.599,364.018z M255.326,407.439
		c-0.139,1.967-0.697,2.555-2.688,2.573c-3.87,0.041-7.742,0.021-11.613,0.021c-20.052,0-40.104,0.002-60.156-0.002
		c-0.861,0-1.459-0.034-1.914-0.142c-0.042,0.002-0.079,0.014-0.123,0.014c-1.457,0-2.199-1.102-2.236-2.229
		c-0.175-0.191-0.242-0.496-0.241-0.918c0.027-14.109,0.035-28.217,0.013-42.326c-0.001-0.914,0.251-1.162,1.17-1.16
		c25.087,0.025,50.173,0.033,75.26-0.008c0.254,0,0.437,0.033,0.594,0.078c0.009,0,0.015-0.005,0.024-0.005
		c0.189,0,0.348,0.045,0.486,0.114c0,0,0,0,0.001,0c0.396,0.054,0.664,0.284,0.792,0.59c0.267,0.197,0.408,0.513,0.419,0.837
		c0.111,0.27,0.127,0.581,0.032,0.857c0.042,0.213,0.04,0.434-0.032,0.643c0.089,0.217,0.105,0.456,0.061,0.688
		c0.065,0.244,0.115,0.495,0.118,0.77c0.006,0.596,0.055,1.189,0.055,1.785c0.004,12.16,0.004,24.32,0.002,36.479
		C255.35,406.545,255.357,406.994,255.326,407.439z"/>
	<path fill="#FFFFFF" d="M343.672,376.947c-0.001-0.748-0.03-1.488-0.319-2.193c-1.528-0.824-3.17-1.016-4.889-1.014
		c-16.58,0.023-33.159,0.014-49.739,0.014c-0.496,0-0.993,0-1.489,0.02c-3.062,0.115-4.884,1.92-4.91,5.01
		c-0.045,5.41-0.028,10.822-0.022,16.232c0.006,6.699,0.027,13.4,0.043,20.102c1.046,1.141,2.348,1.52,3.879,1.518
		c17.489-0.022,34.979-0.01,52.469-0.018c3.248,0,4.99-1.711,4.993-4.939C343.694,400.102,343.677,388.525,343.672,376.947z
		 M340.683,405.824c-0.007,3.201-0.969,4.168-4.209,4.174c-11.177,0.02-22.354,0.008-33.53,0.01c-3.975,0-7.949-0.057-11.922,0.021
		c-1.94,0.036-3.508-0.36-4.327-1.925c-0.228-0.181-0.358-0.442-0.387-0.729c-0.306-0.224-0.451-0.597-0.42-0.972
		c-0.267-0.476-0.337-1.014-0.336-1.585c0.01-8.64,0.002-17.277,0.018-25.918c0.004-1.881,0.835-2.732,2.746-2.734
		c16.035-0.018,32.071-0.01,48.108-0.008c0.128,0,0.243,0.017,0.363,0.027c0.194-0.05,0.398-0.085,0.629-0.085
		c0.638,0,1.131,0.218,1.496,0.549c0.492,0.29,0.813,0.761,0.968,1.29c0.291,0.474,0.403,1.054,0.34,1.615
		c0.354,0.721,0.484,1.533,0.481,2.428C340.671,389.928,340.698,397.875,340.683,405.824z"/>
	<path fill="#FFFFFF" d="M347.278,423.346c0.976,1.422,1.224,2.914,0.312,4.451c-0.938,1.586-2.353,2.271-4.212,2.271
		c-20.534-0.021-41.067-0.031-61.602,0.02c-1.999,0.004-3.43-0.641-4.417-2.34c0.359-0.195,0.359-0.562,0.442-0.896
		c0.591-2.338,2.12-3.655,4.504-3.829c0.889-0.066,1.785-0.056,2.678-0.046C305.748,423.207,326.519,422.494,347.278,423.346z"/>
	<path fill="#FFFFFF" d="M401.472,386.43c0-1.057-0.128-2.074-0.573-3.039c-0.095-0.015-0.164-0.047-0.22-0.09
		c-0.22-0.03-0.398-0.111-0.536-0.237c-0.081-0.019-0.16-0.046-0.238-0.087c-3.402-1.791-7.118-2.131-10.849-2.143
		c-5.698-0.016-11.419-0.449-17.087,0.549c-0.635,0.111-1.267,0.252-1.888,0.424c-4.511,1.242-5.834,2.973-5.834,7.635
		c-0.002,11.764,0.002,23.529,0,35.295c0,0.489,0.088,0.996-0.152,1.465c0.84,1.238,2.049,1.938,3.425,2.436
		c1.547,0.56,3.135,0.929,4.764,1.101c5.889,0.623,11.796,0.324,17.691,0.229c2.715-0.043,5.45-0.469,7.938-1.688
		c2.08-1.019,3.586-2.465,3.576-5.084C401.446,410.939,401.464,398.686,401.472,386.43z M399.359,401.871
		c0,6.801,0.007,13.6-0.006,20.397c-0.004,2.832-0.493,3.322-3.26,3.322c-8.586,0.002-17.173,0-25.76-0.004
		c-0.478,0-0.942-0.021-1.341-0.133c-0.107,0.014-0.211,0.032-0.327,0.032c-1.604,0-2.34-1.332-2.224-2.569
		c-0.07-0.239-0.105-0.521-0.104-0.863c0.044-11.768,0.053-23.535,0.005-35.303c-0.005-1.268,0.368-1.535,1.577-1.529
		c9.434,0.053,18.868,0.072,28.301-0.012c0.743-0.006,1.288,0.073,1.644,0.321c0.46,0.2,0.841,0.548,0.986,1.081
		c0.103,0.369,0.096,0.741,0.059,1.113c0.112,0.227,0.146,0.483,0.102,0.734c0.386,0.426,0.326,1.074,0.331,1.646
		C399.373,394.027,399.358,397.949,399.359,401.871z"/>
	<path fill="#FFFFFF" d="M442.118,397.551c0.002-1.235-0.24-2.352-0.994-3.34c-6.359-0.844-12.752-0.25-19.127-0.422
		c-0.645-0.018-1.291-0.014-1.934,0.035c-3.437,0.258-5.238,2.104-5.312,5.561c-0.063,3.074-0.025,6.152-0.025,9.229
		c-0.001,5.756,0.009,11.512-0.004,17.268c0,0.629,0.162,1.299-0.27,1.873c0.977,1.949,2.539,2.664,4.716,2.629
		c5.856-0.09,11.721-0.164,17.573,0.025c3.049,0.098,5.449-2.14,5.414-5.303C442.058,415.922,442.102,406.734,442.118,397.551z
		 M431.143,428.805c-0.504,0.908-1.391,1.228-2.425,1.086c-0.844-0.113-1.332-0.549-1.645-1.142
		c-1.027-0.384-1.485-1.45-1.377-2.454c-0.161-0.584-0.093-1.224,0.124-1.869c0.304-0.906,1.167-1.297,2.091-1.291
		c1.25,0.006,1.963,0.752,2.262,1.929c0.15,0.258,0.255,0.557,0.457,0.762C431.495,426.709,431.739,427.729,431.143,428.805z
		 M440.921,420.49c-0.008,1.612-0.672,2.262-2.289,2.27c-6.34,0.029-12.682,0.002-19.022,0.023c-0.378,0.001-0.701-0.053-0.983-0.15
		c-0.07,0.006-0.134,0.021-0.208,0.021c-1.484,0-2.23-1.143-2.242-2.292c-0.07-0.169-0.108-0.389-0.106-0.681
		c0.045-7.334,0.036-14.666,0.014-22c-0.003-0.787,0.243-0.991,1.021-0.987c6.869,0.033,13.739,0.037,20.608,0.015
		c0.216-0.064,0.445-0.11,0.706-0.11c0.528,0,0.958,0.15,1.3,0.389c0.255,0.104,0.464,0.296,0.559,0.586
		c0.284,0.446,0.396,0.991,0.357,1.523c0.091,0.312,0.12,0.639,0.093,0.962c0.127,0.286,0.203,0.604,0.205,0.961
		C440.938,407.51,440.952,414,440.921,420.49z"/>
	<path fill="#FFFFFF" d="M227.076,372.119c-14.239,9.527-28.479,19.055-42.717,28.58c-0.948,0.104-0.885-0.605-0.9-1.179
		c-0.033-1.141-0.012-2.282-0.012-3.426c0.001-7.297-0.006-14.594,0.007-21.893c0.004-2.061,0.551-2.773,2.252-2.777
		c13.304-0.021,26.607-0.02,39.911-0.014C226.195,371.412,226.852,371.348,227.076,372.119z"/>
	<path fill="#FFFFFF" d="M313.517,383.215c-5.691,5.238-11.792,9.998-17.663,15.025c-1.352,1.158-2.744,2.268-4.117,3.396
		c-0.316-0.494-0.248-1.051-0.248-1.59c-0.001-4.812-0.003-9.621,0.012-14.432c0.008-2.244,0.443-2.67,2.732-2.676
		c5.902-0.012,11.804-0.01,17.707-0.008C312.479,382.932,313.036,382.867,313.517,383.215z"/>
	<path fill="#FFFFFF" d="M387.233,390.668c-5.264,9.133-10.692,18.168-16.159,27.178c-0.3-0.323-0.273-0.731-0.272-1.127
		c0.004-7.946,0-15.895,0.027-23.844c0.006-1.828,0.594-2.402,2.438-2.414c4.272-0.027,8.544-0.014,12.816-0.016
		C386.479,390.445,386.882,390.426,387.233,390.668z"/>
	<path fill="#FFFFFF" d="M430.919,401.385c-3.66,4.969-7.318,9.939-10.978,14.908c-0.44-4.525-0.315-9.055-0.034-13.578
		c0.062-0.99,0.903-1.389,1.825-1.389C424.794,401.324,427.856,401.363,430.919,401.385z"/>
	<path fill="#FFFFFF" d="M419.251,422.774v7.31h17.416v-7.31H419.251z M427.917,428.91c-0.015,0-0.027-0.005-0.042-0.005
		c-0.014,0-0.026,0.005-0.041,0.005c-2.992,0-2.992-4.962,0-4.962c0.015,0,0.027,0.004,0.041,0.004c0.015,0,0.027-0.004,0.042-0.004
		C430.909,423.948,430.909,428.91,427.917,428.91z"/>
</g>
</svg>
